<svg width="36" height="43" viewBox="0 0 36 43" fill="none" xmlns="http://www.w3.org/2000/svg">
<mask id="mask0_3094_14491" style="mask-type:luminance" maskUnits="userSpaceOnUse" x="0" y="0" width="36" height="43">
<path d="M0 0H35.9829V42.028H0V0Z" fill="white"/>
</mask>
<g mask="url(#mask0_3094_14491)">
<path d="M35.7897 15.888C35.2604 15.5671 34.7072 15.2837 34.1315 15.0394C33.4268 14.7425 32.7057 14.5101 31.968 14.3437C31.0369 14.1323 30.0819 14.0258 29.1104 14.0258C27.3712 14.0258 25.6815 14.3677 24.0922 15.0409C22.5555 15.6901 21.1776 16.6196 19.9947 17.804C18.8117 18.987 17.8822 20.3663 17.2315 21.9016C16.5583 23.4923 16.2165 25.1805 16.2165 26.9197V41.9486H19.7023V35.8105C21.509 35.6366 23.2676 35.1928 24.9453 34.4821C27.0833 33.5781 29.0024 32.2857 30.6501 30.638C32.2978 28.9887 33.5917 27.0696 34.4958 24.9332C35.13 23.4339 35.5528 21.8716 35.7582 20.2674C35.8572 19.5027 35.9066 18.7291 35.9066 17.948C35.9066 17.2538 35.8677 16.5671 35.7897 15.888ZM19.7023 32.3052V26.9197C19.7023 21.7322 23.9243 17.5117 29.1119 17.5117C30.2753 17.5117 31.3923 17.7246 32.4223 18.1129C32.3383 25.4234 26.8045 31.4476 19.7023 32.3052ZM12.951 31.5135V35.1853C12.2808 34.9919 11.6212 34.7565 10.9735 34.4821C8.83698 33.5781 6.91789 32.2857 5.27018 30.638C3.62096 28.9887 2.32857 27.0696 1.4245 24.9332C0.487447 22.7202 0.0136719 20.3693 0.0136719 17.948C0.0136719 15.5251 0.487447 13.1742 1.4245 10.9613C2.32857 8.82331 3.62096 6.90422 5.27018 5.2565C6.91789 3.60879 8.83698 2.3149 10.9735 1.41083C13.1879 0.473775 15.5373 0 17.9602 0C20.383 0 22.7324 0.473775 24.9468 1.41083C27.0833 2.3149 29.0039 3.60879 30.6516 5.2565C32.2993 6.90422 33.5932 8.82331 34.4973 10.9613C34.6142 11.2387 34.7237 11.5175 34.8271 11.7994C33.4478 11.2776 32.013 10.9508 30.5422 10.8219C28.0534 6.44394 23.3471 3.48435 17.9617 3.48435C9.98694 3.48435 3.49952 9.97327 3.49952 17.948C3.49802 24.161 7.43815 29.4715 12.951 31.5135Z" fill="white"/>
</g>
</svg>
